<?xml version="1.0" encoding="utf-8"?>
<!-- Generator: Adobe Illustrator 26.1.0, SVG Export Plug-In . SVG Version: 6.00 Build 0)  -->
<svg version="1.1" id="Layer_1" xmlns="http://www.w3.org/2000/svg" xmlns:xlink="http://www.w3.org/1999/xlink" x="0px" y="0px"
	 viewBox="0 0 174 42" style="enable-background:new 0 0 174 42;" xml:space="preserve">
<style type="text/css">
	.st0{fill-rule:evenodd;clip-rule:evenodd;fill:#00B53E;}
	.st1{fill-rule:evenodd;clip-rule:evenodd;fill:#FF5A19;}
	.st2{fill:#FF5A19;}
	.st3{fill:#00B53E;}
	.st4{fill:#24282C;}
</style>
<path class="st0" d="M40.4,20c0,10-7.2,18.2-16.7,19.9l-2.2-12.4c3.5-0.6,6.3-3.7,6.3-7.5c0-3.7-2.7-6.8-6.3-7.5l2.2-12.4
	C33.2,1.7,40.4,10,40.4,20z"/>
<path class="st1" d="M18.9,27.4l-2.2,12.4C7.2,38.2,0,29.9,0,20C0,10,7.2,1.8,16.7,0.1l2.2,12.4c-3.5,0.6-6.3,3.7-6.3,7.5
	C12.7,23.7,15.4,26.8,18.9,27.4z"/>
<path class="st1" d="M49.6,20.3c0-5.7,4.2-10.1,10.1-10.1c3.5,0,6.6,1.8,8.3,4.5l-3.8,2.2c-0.9-1.5-2.5-2.4-4.5-2.4
	c-3.4,0-5.7,2.3-5.7,5.8s2.2,5.8,5.7,5.8c2,0,3.7-0.9,4.5-2.4l3.8,2.2c-1.7,2.7-4.8,4.5-8.3,4.5C53.9,30.4,49.6,26,49.6,20.3z"/>
<path class="st2" d="M84,15.2v15.2h-4.3v-1.8c-0.9,1.1-2.3,1.8-4.3,1.8c-3.7,0-6.8-3.3-6.8-7.6s3.1-7.6,6.8-7.6
	c1.9,0,3.3,0.7,4.3,1.8v-1.8L84,15.2L84,15.2z M79.7,22.8c0-2.1-1.4-3.5-3.4-3.5c-2,0-3.4,1.3-3.4,3.5s1.4,3.5,3.4,3.5
	C78.2,26.3,79.7,24.9,79.7,22.8z"/>
<path class="st1" d="M93.7,15.2v4.9c-1.8-0.3-4.3,0.4-4.3,3.3v6.9H85V15.2h4.4v2.9C90,16.1,91.9,15.2,93.7,15.2z"/>
<path class="st3" d="M112.7,20.3c0,5.7-4.2,10.1-9.8,10.1h-8.1V10.2h8.1C108.4,10.2,112.7,14.6,112.7,20.3z M108.2,20.3
	c0-3.5-2.2-5.7-5.4-5.7h-3.5v11.3h3.5C106,25.9,108.2,23.7,108.2,20.3z"/>
<path class="st3" d="M121.2,26.5c1.2,0,2.2-0.5,2.8-1.1l3.4,2c-1.4,2-3.5,3-6.2,3c-4.9,0-7.9-3.3-7.9-7.6c0-4.3,3.1-7.6,7.6-7.6
	c4.2,0,7.3,3.2,7.3,7.6c0,0.6-0.1,1.2-0.2,1.7h-10.2C118.3,26,119.6,26.5,121.2,26.5z M123.8,21.3c-0.5-1.7-1.8-2.3-3-2.3
	c-1.6,0-2.7,0.8-3.1,2.3H123.8z"/>
<path class="st0" d="M137.8,30.4l-4.4-6.1v6.1h-4.2V10.2h4.2v11.1l4.2-6.1h4.8l-5,7.3l5.2,7.8L137.8,30.4L137.8,30.4z"/>
<path class="st0" d="M156.8,21v9.4h-4.2v-8.8c0-1.7-1.1-2.5-2.4-2.5c-1.5,0-2.6,0.9-2.6,2.9v8.5h-4.2V10.2h4.2v6.7
	c0.7-1,2.1-1.7,4-1.7C154.5,15.2,156.8,17.2,156.8,21z"/>
<path class="st3" d="M157.9,22.8c0-4.3,3.4-7.6,7.6-7.6c4.2,0,7.6,3.3,7.6,7.6c0,4.3-3.4,7.6-7.6,7.6
	C161.3,30.4,157.9,27.1,157.9,22.8z M168.8,22.8c0-2-1.4-3.4-3.3-3.4c-1.9,0-3.3,1.3-3.3,3.4c0,2,1.4,3.4,3.3,3.4
	C167.4,26.2,168.8,24.8,168.8,22.8z"/>
<path class="st4" d="M76.7,36c0.5,0.3,0.8,0.7,0.8,1.4c0,0.5-0.2,0.9-0.5,1.2c-0.3,0.3-0.8,0.5-1.3,0.5H73v-6h2.4
	c0.5,0,0.9,0.1,1.3,0.5c0.3,0.3,0.5,0.7,0.5,1.2C77.2,35.3,77.1,35.7,76.7,36z M75.4,34.2h-1.2v1.3h1.2c0.2,0,0.3,0,0.4-0.2
	C76,35.2,76,35,76,34.8c0-0.2,0-0.3-0.2-0.5C75.7,34.3,75.6,34.2,75.4,34.2z M75.6,38c0.2,0,0.3,0,0.5-0.2c0.1-0.1,0.2-0.3,0.2-0.5
	c0-0.2,0-0.3-0.2-0.5c-0.1-0.1-0.3-0.2-0.5-0.2h-1.4v1.4L75.6,38L75.6,38z"/>
<path class="st4" d="M81.7,33.1h1.2v6h-1.2v-2.5h-2.2v2.5h-1.2v-6h1.2v2.4h2.2V33.1z"/>
<path class="st4" d="M87.9,39.1L87.5,38h-2.5l-0.3,1.1h-1.3l2.1-6H87l2.1,6H87.9z M85.5,37h1.7l-0.9-2.5L85.5,37z"/>
<path class="st4" d="M93,39.1l-1.2-2.1h-0.9v2.1h-1.2v-6h2.4c0.5,0,1,0.2,1.4,0.6c0.4,0.4,0.6,0.8,0.6,1.4c0,0.4-0.1,0.7-0.3,1
	c-0.2,0.3-0.5,0.5-0.8,0.7l1.3,2.3L93,39.1L93,39.1z M90.9,34.2V36h1.2c0.2,0,0.4-0.1,0.6-0.2c0.1-0.2,0.2-0.4,0.2-0.6
	c0-0.2-0.1-0.4-0.2-0.6c-0.1-0.2-0.3-0.2-0.6-0.2H90.9z"/>
<path class="st4" d="M100.1,38.3c-0.6,0.6-1.3,0.9-2.2,0.9c-0.9,0-1.6-0.3-2.2-0.9c-0.6-0.6-0.9-1.3-0.9-2.2c0-0.9,0.3-1.6,0.9-2.2
	c0.6-0.6,1.3-0.9,2.2-0.9c0.9,0,1.6,0.3,2.2,0.9c0.6,0.6,0.9,1.3,0.9,2.2C101,37,100.6,37.7,100.1,38.3z M96.4,37.5
	c0.4,0.4,0.8,0.5,1.4,0.5c0.5,0,1-0.2,1.4-0.5c0.3-0.3,0.5-0.8,0.5-1.4c0-0.6-0.2-1-0.5-1.4c-0.4-0.4-0.8-0.5-1.4-0.5
	c-0.5,0-1,0.2-1.4,0.5c-0.4,0.4-0.5,0.8-0.5,1.4C95.9,36.7,96,37.1,96.4,37.5z"/>
<path class="st4" d="M103.7,39.3c-0.6,0-1.1-0.1-1.5-0.4c-0.4-0.2-0.7-0.6-0.8-1.1l1-0.6c0.2,0.6,0.7,0.9,1.4,0.9
	c0.3,0,0.6,0,0.7-0.2c0.1-0.1,0.2-0.3,0.2-0.4c0-0.2-0.1-0.4-0.3-0.5c-0.2-0.1-0.5-0.2-1-0.4c-0.2-0.1-0.5-0.1-0.7-0.2
	c-0.2-0.1-0.4-0.2-0.5-0.3c-0.2-0.1-0.3-0.3-0.4-0.5c-0.1-0.2-0.1-0.4-0.1-0.7c0-0.5,0.2-1,0.6-1.3c0.4-0.3,0.8-0.5,1.4-0.5
	c0.5,0,0.9,0.1,1.3,0.3c0.4,0.2,0.6,0.6,0.9,1l-1,0.6c-0.2-0.5-0.6-0.8-1.1-0.8c-0.2,0-0.4,0-0.6,0.1c-0.1,0.1-0.2,0.2-0.2,0.4
	c0,0.2,0.1,0.3,0.2,0.4c0.1,0.1,0.4,0.2,0.9,0.4c0.2,0,0.3,0.1,0.4,0.1c0.1,0,0.2,0.1,0.4,0.1c0.1,0,0.3,0.1,0.4,0.2
	s0.2,0.1,0.3,0.2c0.1,0.1,0.2,0.2,0.2,0.3c0,0.1,0.1,0.2,0.1,0.4c0,0.1,0,0.3,0,0.5c0,0.5-0.2,1-0.6,1.3
	C104.8,39.1,104.3,39.3,103.7,39.3z"/>
<path class="st4" d="M110.5,39.1l-0.4-1.1h-2.5l-0.3,1.1H106l2.1-6h1.5l2.1,6H110.5z M108,37h1.7l-0.9-2.5L108,37z"/>
<path class="st4" d="M119.2,39.1h-1.4l-2.2-2.8v2.8h-1.2v-6h1.2v2.7l2.1-2.7h1.4l-2.2,2.9L119.2,39.1z"/>
<path class="st4" d="M123.9,39.1l-0.4-1.1H121l-0.3,1.1h-1.3l2.1-6h1.5l2.1,6H123.9z M121.4,37h1.7l-0.9-2.5L121.4,37z"/>
<path class="st4" d="M129,39.1l-1.2-2.1h-0.9v2.1h-1.2v-6h2.4c0.5,0,1,0.2,1.4,0.6c0.4,0.4,0.6,0.8,0.6,1.4c0,0.4-0.1,0.7-0.3,1
	c-0.2,0.3-0.5,0.5-0.8,0.7l1.3,2.3L129,39.1L129,39.1z M126.9,34.2V36h1.2c0.2,0,0.4-0.1,0.6-0.2c0.1-0.2,0.2-0.4,0.2-0.6
	c0-0.2-0.1-0.4-0.2-0.6c-0.1-0.2-0.3-0.2-0.6-0.2H126.9z"/>
<path class="st4" d="M137.9,39.1h-1.4l-2.2-2.8v2.8h-1.2v-6h1.2v2.7l2.1-2.7h1.4l-2.2,2.9L137.9,39.1z"/>
<path class="st4" d="M139.7,38h2.6v1.1h-3.8v-6h3.7v1.1h-2.5v1.3h2.3v1.1h-2.3V38L139.7,38z"/>
<path class="st4" d="M147.6,33.1c0.8,0,1.5,0.3,2.1,0.9c0.5,0.6,0.8,1.3,0.8,2.1c0,0.8-0.3,1.6-0.8,2.1c-0.5,0.6-1.2,0.9-2.1,0.9
	h-2.4v-6H147.6z M147.6,38c0.5,0,0.9-0.2,1.3-0.5c0.3-0.3,0.5-0.8,0.5-1.3c0-0.5-0.1-1-0.5-1.4c-0.3-0.3-0.7-0.5-1.3-0.5h-1.2v3.8
	L147.6,38L147.6,38z"/>
<path class="st4" d="M152.5,38h2.6v1.1h-3.8v-6h3.7v1.1h-2.5v1.3h2.3v1.1h-2.3V38L152.5,38z"/>
<path class="st4" d="M160.6,39.1h-1.4l-2.2-2.8v2.8h-1.2v-6h1.2v2.7l2.1-2.7h1.4l-2.2,2.9L160.6,39.1z"/>
<path class="st4" d="M164.7,33.1h1.2v6h-1.2v-2.5h-2.2v2.5h-1.2v-6h1.2v2.4h2.2V33.1z"/>
<path class="st4" d="M172.1,38.3c-0.6,0.6-1.3,0.9-2.2,0.9s-1.6-0.3-2.2-0.9c-0.6-0.6-0.9-1.3-0.9-2.2c0-0.9,0.3-1.6,0.9-2.2
	c0.6-0.6,1.3-0.9,2.2-0.9s1.6,0.3,2.2,0.9c0.6,0.6,0.9,1.3,0.9,2.2C173,37,172.7,37.7,172.1,38.3z M168.4,37.5
	c0.4,0.4,0.8,0.5,1.4,0.5c0.5,0,1-0.2,1.4-0.5c0.3-0.3,0.5-0.8,0.5-1.4c0-0.6-0.2-1-0.5-1.4c-0.4-0.4-0.8-0.5-1.4-0.5
	c-0.5,0-1,0.2-1.4,0.5c-0.4,0.4-0.5,0.8-0.5,1.4C167.9,36.7,168.1,37.1,168.4,37.5z"/>
<g>
	<path class="st3" d="M118.3,8.9c0-0.2,0.1-0.3,0.1-0.5c0-0.2-0.1-0.4-0.2-0.6c-0.1-0.2-0.2-0.4-0.2-0.6c-0.1-0.3-0.2-0.6-0.3-0.9
		c-0.1-0.4-0.2-0.8-0.2-1.3c0-0.1,0-0.2,0-0.2c0-0.1-0.1-0.1-0.2-0.1c-0.1,0-0.2,0.2-0.2,0.3c0,0.3,0,0.6,0.1,0.9
		c-0.1-0.3-0.2-0.5-0.4-0.8c-0.1-0.2-0.2-0.3-0.4-0.3c-0.2,0.1,0,0.8,0.1,1.2c-0.2-0.2-0.4-0.4-0.6-0.6c-0.2-0.2-0.7-0.2-0.3,0.5
		c-0.1,0-0.3,0.1-0.3,0.2c0,0.1,0,0.3,0,0.4c-0.1,0-0.3,0.1-0.3,0.2c0,0.1,0.1,0.3,0.1,0.4c-0.1,0-0.5,0.1-0.2,0.6
		c-0.1,0.1-0.1,0.3-0.1,0.5c-0.1,0.2-0.1,0.5,0.1,0.7c-0.1,0-0.2,0.2-0.1,0.3c0,0.1,0.1,0.2,0.2,0.3c-0.2,0.2-0.1,0.5,0.1,0.7
		c-0.1,0.1-0.2,0.3-0.1,0.4c0.1,0.1,0.2,0.2,0.4,0.2c-0.1,0.2,0,0.5,0.2,0.6c-0.1,0.1,0,0.3,0.1,0.4c0.1,0.1,0.3,0.1,0.4,0.2
		c0.2-0.4,0.7-0.5,1.1-0.7c0.3-0.1,0.5-0.3,0.7-0.4c0,0,0.1,0,0.1-0.1c0.1-0.1,0-0.3,0.1-0.4c0-0.1,0-0.2,0-0.3
		C118.2,9.5,118.2,9.2,118.3,8.9z"/>
	<path class="st3" d="M110.3,6.4c0,0-0.8-1.1-0.5-1.2c0.2-0.1,1.5,1.1,1.5,1c0,0-1-1.9-0.8-2c0.3-0.2,1,1.6,1,1.6s0-0.8-0.1-1.2
		c-0.1-0.5,0.1-0.7,0.3-0.8c0.2-0.1-0.2,1.1,0.3,2.4c0.3,0.7,1.2,1.5,2,1.9c0.8,0.4,3,2.3,3.2,2.4c0.1,0.1,0.4-0.1,0.6-0.4
		c0-0.2,0.1-0.3,0.4-0.5c0,0,0.9-0.7,1.1-0.8c0.4-0.2,0.6-0.2,0.8,0c0.2,0.1,0.3,0.3,0.3,0.3c0,0.1,0.3,0.2,0.4,0.3
		c0.1,0,0.1,0.1,0.1,0.1c0,0-0.4,0-0.5,0c-0.1,0-0.1,0-0.3,0.1c-0.1,0.1-0.6,0.5-0.8,0.8c-0.2,0.3-0.3,0.7-0.6,1.2
		c-0.5,0.9-1.4,1.6-1.9,1.7c-0.5,0.1-0.9,0.6-0.9,0.6s0.5,0.8,0.3,1.1c-0.2,0.3-0.4,0.1-0.4,0.4c0,0.6-0.5,0.4-0.5,0.4
		s-0.1,0.3-0.3,0.5c-0.2,0.2-0.4-0.1-0.4-0.1s0,0.4-0.4,0.4c-0.3,0-0.2-0.3-0.2-0.2c-0.3,0.5-0.6,0.1-0.6,0.1s-0.1,0.2-0.4,0.2
		c-0.2,0-0.1-0.5-0.1-0.5s-0.4,0.2-0.6,0c-0.3-0.3,0.4-0.8,0.4-0.8s-0.3,0-0.3-0.1c-0.1-0.3,0.2-0.5,0.2-0.5s-0.2,0.1-0.2-0.2
		c0.1-0.3,0.5-0.5,0.5-0.5s-0.2-0.1-0.1-0.4c0.1-0.3,0.9-0.5,1.3-0.7c0.4-0.1,1.3-1,1.1-1c-0.3,0.1-0.5-0.2-0.5-0.2
		s-0.5,0.1-0.7-0.1c-0.2-0.1-0.1-0.4-0.2-0.3c0,0.1-0.5,0.1-0.6,0c-0.1-0.2,0.2-0.4,0.2-0.4s-0.3,0.2-0.7,0.1c-0.2-0.1,0-0.4,0-0.4
		s-0.3,0.2-0.6,0c-0.2-0.2,0-0.4,0-0.4s-0.4,0.1-0.5-0.1c-0.1-0.2,0.1-0.2,0.1-0.3c0,0-0.3,0-0.4-0.1c-0.4-0.2-0.1-0.5-0.1-0.5
		s-0.3,0-0.4-0.2c-0.1-0.3,0.1-0.4,0.1-0.4s-0.5-0.1-0.5-0.3c0-0.2,0.2-0.3,0.2-0.3s-0.3-0.1-0.4-0.3c-0.1-0.2,0.1-0.4,0.1-0.4
		S110,6.7,110,6.5C110,6.3,110.3,6.4,110.3,6.4z"/>
</g>
</svg>
